<svg xmlns="http://www.w3.org/2000/svg" xml:space="preserve" width="465" height="466.3">
  <defs>
    <clipPath clipPathUnits="userSpaceOnUse" id="a">
      <path d="M0 0h371.8v373H0V0Z"/>
    </clipPath>
    <clipPath clipPathUnits="userSpaceOnUse" id="b">
      <path d="M0 0h372v373H0V0Z"/>
    </clipPath>
    <clipPath clipPathUnits="userSpaceOnUse" id="c">
      <path d="M0 0h371.8v373H0V0Z"/>
    </clipPath>
    <clipPath clipPathUnits="userSpaceOnUse" id="d">
      <path d="M43.8 38H328v244H43.8V38z"/>
    </clipPath>
    <clipPath clipPathUnits="userSpaceOnUse" id="e">
      <path d="M43 38h286v244H43V38z"/>
    </clipPath>
    <clipPath clipPathUnits="userSpaceOnUse" id="f">
      <path d="M43.8 38H328v244H43.8V38z"/>
    </clipPath>
  </defs>
  <g transform="matrix(1.25 0 0 -1.25 0 466.3)">
    <ellipse style="fill:#fff;fill-rule:evenodd;stroke:#000;stroke-width:.80000001px;stroke-linecap:butt;stroke-linejoin:miter;stroke-opacity:1;fill-opacity:1" cx="186.1" cy="-185.6" transform="scale(1 -1)" rx="183.9" ry="185.6"/>
    <g clip-path="url(#a)">
      <g clip-path="url(#b)">
        <g clip-path="url(#c)">
          <path d="M160 42.4c65 0 118 53.2 118 118.7s-53 118.7-118 118.7A118.5 118.5 0 0 1 41.7 161.1c0-65.5 53-118.7 118.1-118.7zm.4-40.8c87.4 0 158.5 71.3 158.5 159s-71 159-158.5 159a158.9 158.9 0 0 1-158.5-159c0-87.7 71-159 158.5-159Z" style="fill:none;stroke:#363639;stroke-width:3;stroke-linecap:butt;stroke-linejoin:miter;stroke-miterlimit:4;stroke-dasharray:none;stroke-opacity:1" transform="scale(1.15838)"/>
          <path d="m30.1 253.3 5-6 3 7.3.2.3.2.3s.2.1.4 0c0 0 .4 0 .7-.2l2-1a12.8 12.8 0 0 0 .7-.5l.1-.4-.3-.6-4.2-6.6 8-.6h.4l.3-.3.1-.4v-.6l-.4-2.2v-.6l-.2-.3-.4-.2-.6.1-7.6 2 2-7.7v-.6l-.2-.4-.3-.2h-.6l-2.2-.4h-1.1l-.2.4v.5l-.6 7.8-6.6-4.1-.6-.3-.5.1-.2.3-.2.4-1 2-.3.7.1.4.3.3.3.2 7.3 2.8-6 5-.3.3c-.2.2-.3.4-.2.6l.5.8 1.5 1.6.9.5s.4 0 .6-.2l.2-.3m302.2 0 5.1-6 3 7.3.1.3.2.3c.1 0 .2.1.4 0l.8-.2 2-1a12.8 12.8 0 0 0 .6-.5c.1 0 .2-.2.1-.4 0 0 0-.4-.2-.6l-4.2-6.6 7.8-.6h.5l.3-.3.2-.4v-.6l-.4-2.2-.1-.6c0-.2-.1-.3-.2-.3l-.4-.2-.5.1-7.7 2 2-7.7v-.6l-.2-.4-.3-.2h-.6l-2.1-.4h-1.2l-.1.4v.5l-.6 7.8-6.7-4.1-.6-.3-.5.1-.2.3-.2.4-1 2-.3.7c0 .2 0 .3.2.4l.3.3.2.2 7.4 2.8-6.1 5-.2.3c-.3.2-.3.4-.3.6 0 0 .2.5.6.8l1.5 1.6c.3.3.6.5.8.5 0 0 .4 0 .6-.2l.2-.3M46.4 297.5l-1.2 1.2a136.9 136.9 0 0 1 7.2 6.9l9.3-3.7L83 294l-6.6 19.5c-1.8 5.4-3.1 9-4 11.2a126 126 0 0 1 7.3 7l1.2-1.2a18 18 0 0 1-2.5-2.7l-.3-1.1c.1-.4.6-1.1 1.5-2l5-5.5 8.4-8.7 4.9-4.9a7.3 7.3 0 0 1 2.3-1.8c.3-.1.7 0 1.1.1 0 0 1.4 1 2.9 2.4l1.2-1.2c-2.7-2.3-4.5-4-5.5-5 0 0-2.6-2.5-5.3-5.4l-1.2 1.2c1.5 1.5 2.3 2.4 2.5 2.8.2.4.3.8.2 1 0 .5-.5 1.2-1.4 2.2 0 0-2 2-5 5.4L76.2 321l6.6-19.7 2.6-7.3 2.4-6.3-.7-.7-1.6.8-3.8 1.5-26.8 10 12.6-13.1 4.9-5c1.2-1 2-1.7 2.3-1.8.3 0 .7 0 1.1.2l3 2.4 1-1.2-4.5-4.2-4.5-4.6-1.2 1.2a18 18 0 0 1 2.5 2.8l.3 1c-.1.5-.6 1.2-1.5 2.2 0 0-2 2-5 5.4l-8.4 8.6-4.9 5a8.3 8.3 0 0 1-2.3 1.8c-.3.1-.7 0-1.1-.1 0 0-1.4-1-2.9-2.4m57.5 46.6-.6 1.5a160.8 160.8 0 0 1 13.9 5.8l.6-1.5c-1.8-.8-3-1.4-3.3-1.7l-.6-.9c0-.4.1-1.2.6-2.5l2.7-6.8 3.7-9c1.5-3.4 2.6-5.5 3.5-6.5a7.3 7.3 0 0 1 6.7-1.9c1.4.2 2.9.6 4.4 1.2 1.8.8 3.2 1.6 4.4 2.7 1.2 1 2 2 2.5 2.9.4.9.6 1.8.6 2.7 0 1-.2 2.1-.6 3.6 0 0-1 3.2-2 5.3l-3 7.4a228 228 0 0 1-4.2 8.9c-.3.2-.7.3-1.1.2 0 0-1.7-.4-3.6-1.1l-.6 1.5a144 144 0 0 1 11.6 4.8l.7-1.5a18 18 0 0 1-3.3-1.7c-.4-.3-.6-.6-.7-.9 0-.4.2-1.2.7-2.5l2.7-6.8 3.3-8c1.7-4 2.6-6.9 2.7-8.7 0-1.8-.3-3.6-1.3-5.4a12 12 0 0 0-3.4-3.9 22.3 22.3 0 0 0-5.4-3 18.2 18.2 0 0 0-6.7-1.8c-2-.2-3.7 0-5 .6a8.7 8.7 0 0 0-3.2 2s-2 3.3-3.4 6.4l-4.4 10.6-2.7 6.4a8.3 8.3 0 0 1-1.5 2.5 2 2 0 0 1-1.1.3s-1.7-.4-3.6-1.2m71.1-15.4v1.3l2 1.2.4.6.3 3.1v25.2a8 8 0 0 1-.4 3l-1 .6-3.7.3v1.6a354.6 354.6 0 0 1 15.2 0V364c-2 0-3.3-.2-3.7-.3l-1-.6c-.1-.4-.3-1.2-.3-2.5l-.1-7.4v-22l6-.2c4.8 0 8.1.4 10 1l.7 1.8 1 4.3h1.7a223 223 0 0 1-1-9.1l-1.7-.3H195l-15.2.2-5-.2m52.5-5.7.6 1.3c1.1 0 2 .1 2.3.3.2 0 .4.2.6.4l1.5 2.7 1.8 3.8 5.7 12.9 2.7 6.3c.6 1.5.9 2.5.8 2.8 0 .4-.2.7-.6 1 0 0-1.4 1-3.3 1.8l.7 1.5 7-3.3 6.9-2.8-.7-1.5a18 18 0 0 1-3.5 1.2c-.5 0-.8 0-1-.2-.4-.2-.9-1-1.4-2.1l-3.1-6.7-7-16-1.8-4.1a64.7 64.7 0 0 1 15-5.8l1.2 1.4 2.7 3.5 1.6-.7-4.7-7.8-1.6.4-3.8 1.6-14 6.3-4.6 1.9m43.4-23.5 1.1 1.3c1.4-1.2 2.4-1.9 3-2 .2-.2.4-.1.7 0a257.6 257.6 0 0 0 6.1 6.1l8.8 10 4.6 5.2c1 1.2 1.6 2 1.6 2.4 0 .4 0 .7-.2 1.1 0 0-1.1 1.3-2.6 2.7l1 1.3 5.5-5 5.9-5.1 6-5.3c1.4-1.2 2.5-2.3 3.5-3.4a21 21 0 0 1-2.1-1.6l-4-3.7-1.2 1c1.2 1.4 2.2 2.6 3 3.9-.5 1-1 1.8-1.8 2.7a46.2 46.2 0 0 1-8.6 7.7l-3.8-4-5.9-6.4a107 107 0 0 1 8.2-7c.4-.4.8-.5 1-.5 0 0 .9.5 1.8 1.3l1.3 1.3 1.1-1-.3-.4-3.7-4-3.9-4.6-1.4 1.2 1.2 1.4a6 6 0 0 1 1.3 2c0 .4 0 .8-.4 1.2a123.6 123.6 0 0 1-7.8 7.2 170.7 170.7 0 0 1-10-11.2 109.6 109.6 0 0 1 9.7-8.7c.8-.5 1.5-1 2.4-1.2l1.9 1.2 2.8 2.1 1.3-1a71.6 71.6 0 0 1-6.3-6.2l-4.2 3.4-11.4 10.3-5.2 4.3M42.8 186l1.6-.1-.4-7.8v-7.3h-1.6c0 2.1 0 3.3-.2 3.8-.1.4-.3.8-.6 1-.3.1-1.2.3-2.5.4l-7.4.3-12 .3-7 .1c-1.6 0-2.6-.1-2.9-.3-.3-.2-.5-.5-.7-1l-.3-3.6H7a264.7 264.7 0 0 1 .4 15h1.7l.1-3.7.6-1c.4-.1 1.2-.3 2.5-.4l7.4-.3 5.4-.1s-1.4 2-2.6 3.3l-3 3.4-5.7 5.9-4.2 4.2h-2A152.9 152.9 0 0 1 8 207h1.7l.1-3.4a5 5 0 0 1 .8-1.7l4.2-5.1 9.2-10.6 15 15.1c2.5 2.4 3.8 3.8 4 4.2 0 0 .4 1 .4 2l1.6-.1a105.6 105.6 0 0 1-.2-7.4l-4.3-4.2-2.6-2.6-11.4-11.4.3-.6 5-.1a217.5 217.5 0 0 1 9.9.2c.3.2.6.5.7 1 0 0 .3 1.6.4 3.6m312.6-46.4 1.5-.6-1-6.2c-.4-.6-.8-1-1-1.1a66.3 66.3 0 0 0-10.2-2.5c-3.3-.6-7-1-11-1.5 0 0 4.3-5.5 6.8-8.4l7-8.4-1.3-3.7-.7.2a100 100 0 0 1-11.2 15.7 37.8 37.8 0 0 1-3.3 3.8l-1.3.8-2 .7-6.4 2.3a8 8 0 0 1-3 .6c-.3 0-.6-.3-.9-.7 0 0-.8-1.5-1.5-3.4l-1.6.6a150 150 0 0 1 5.1 14.1l1.6-.5c-.7-2-1-3.1-1-3.6s0-.8.2-1c.3-.4 1-.8 2.3-1.3l6.9-2.6 2.9-1a611.6 611.6 0 0 0 7.4 1.2l3.2.6 5.5 1.2c2.1.6 3.7 1.1 4.7 1.6.6.3 1 .6 1.3 1 0 0 .7 1.1 1 2m-54.9-37.3 1-.8a11 11 0 0 1-.4-2l.3-.6 2.4-2.4 2.9-2.5 12-10a134.6 134.6 0 0 1 7-5.2h.7s1.4 1.2 2.6 2.5l1.2-1-1.4-1.6-3.5-4-6-7.5c-1.5-2-3-3.2-4.2-4a7 7 0 0 0-4-.8 7 7 0 0 0-3.8 1.7 8.4 8.4 0 0 0-2.9 5.7c0 1 0 2 .3 3s.7 2.3 1.4 3.7a25.6 25.6 0 0 0-3.8-3.2 7.1 7.1 0 0 0-6.5-1A10.6 10.6 0 0 0 289 80a13 13 0 0 0 .4 7.3s1.8 3.7 3.4 5.6l5 5.6 2.7 3.6zm16.6-23.4-4.7 4-1.7-2a19 19 0 0 1-2.8-4 6.4 6.4 0 0 1-.1-5.6 7 7 0 0 1 2-2.6c1.7-1.4 3.4-1.8 5-1.4a10 10 0 0 1 5 3.7c.9 1 1.7 2.2 2.3 3.4l-5 4.5zm-19.3 16c-1-.8-2-1.7-3-2.8a12.2 12.2 0 0 1-2.7-4.9c-.3-1.5-.2-3 .4-4.5.6-1.5 1.6-2.8 3-4a9.2 9.2 0 0 1 4.2-2.1c1.4-.3 2.8 0 4.2.6 1.3.7 3 2.3 5.1 4.8l1.7 2.2-7.5 6.3-5.4 4.4m-30.2-25.6.9-1.4a9.6 9.6 0 0 1-2.8-2.2 1 1 0 0 1-.2-.7c0-.4.4-1.2 1.1-2.5l3-5.1 7-11.3 3.8-5.8a9 9 0 0 1 1.9-2.3c.3-.2.7-.2 1.1 0 0 0 1.6.6 3.3 1.6l1-1.4-6.4-3.7-6.5-4.3-6.8-4.3a26 26 0 0 0-4.3-2.3l-.9 2.5-2.4 4.8 1.3.8 2.9-3.9c1 .2 2 .5 3 1a46.3 46.3 0 0 1 10 6l-2.8 4.7-4.6 7.5a107.2 107.2 0 0 1-9-5.8c-.5-.3-.7-.6-.7-.9 0 0 .2-1 .8-2l.8-1.6-1.3-.9-.3.5-2.7 4.6-3.4 5 1.6 1 1-1.4a6 6 0 0 1 1.5-1.9h1.3a128.7 128.7 0 0 1 9 5.5 172.6 172.6 0 0 1-7.9 12.8 109.8 109.8 0 0 1-11-6.8c-.7-.6-1.3-1.3-1.8-2 0-.5.3-1.3.6-2.2l1.2-3.3-1.4-1a71.7 71.7 0 0 1-4 7.8s2.5 2 4.3 3.2l13.2 8 5.6 3.7m-33.9-54.6.4-1.6-3-.6-5-1a147.3 147.3 0 0 1-8.9-2.1c-3.2-.7-5.6-.9-7.2-.6a7 7 0 0 0-4 2 8 8 0 0 0-2.1 4 9.8 9.8 0 0 0 2.8 8.7c1.2 1.3 2.9 2.4 5 3.4L208 30l-8.2 7.1a57.3 57.3 0 0 1-4.5 3.4l-1.7-.2-.4 1.6a43.8 43.8 0 0 1 7 1.5c1.4-1 3.8-3.1 7.1-6.3l5-4.3s4.3-3.6 6.3-5l-.1-.9-2-.4c-3-.6-5.2-1.8-6.5-3.6a7.7 7.7 0 0 1-1.1-6.3 6.4 6.4 0 0 1 3-4.5c1.7-1 3.9-1.2 6.6-.6 1.8.4 3.4 1 5 2a89 89 0 0 1-.4 2.5l-1.4 7.5-2.5 11.2a224.7 224.7 0 0 1-2.5 9.6c-.2.2-.6.4-1 .4 0 0-1.8 0-3.7-.5l-.4 1.7a119.7 119.7 0 0 1 14.7 3.1l.4-1.6a18 18 0 0 1-3.6-1c-.4-.3-.7-.6-.8-.9-.1-.3 0-1.2.2-2.5l1.4-7.3 2.5-11.7 1.6-6.8c.4-1.6.7-2.5 1-2.8.2-.2.6-.4 1-.4 0 0 1.7.1 3.7.5M173.3 43l-.4-1.6c-1.8.4-3 .5-3.6.4a1 1 0 0 1-.6-.4l-1-2.5-1.5-5.8-5-20.6-.1-1c0-.4.3-.9.6-1.4l1-.8 2.5-.7L165 7a332.5 332.5 0 0 1-9 2.1l-2 5-3.7 7.6-5.4 11-4.1 8.4-1.8 3.2-4.4-18.5a115.8 115.8 0 0 1-1.5-8.6c0-.2.2-.4.4-.6 0 0 1.6-.8 3.3-1.2l-.4-1.6-6 1.6-5.1 1.1.4 1.6c1.7-.4 2.9-.6 3.5-.4l.6.3a258.3 258.3 0 0 1 2.5 8.3l3 12.2 3.1 13.8 2.4-1.4.6-.2.2-.3.7-1.2 2.2-4.3 2.3-5 12.6-25.6 4.6 19.4a115.5 115.5 0 0 1 1.6 8.5c0 .3-.2.5-.4.7 0 0-1.6.7-3.4 1.2l.4 1.6c1.4-.5 3-1 4.8-1.4l6.4-1.3M113 62.4l-1-1.3a10.4 10.4 0 0 1-3 1.9 1 1 0 0 1-.7-.1c-.3-.2-1-.8-2-2l-3.8-4.5L94.3 46l-4.2-5.5a8.3 8.3 0 0 1-1.5-2.5c0-.4 0-.8.3-1.1 0 0 1.2-1.3 2.7-2.6l-1-1.3-5.7 4.7-6.1 4.7-6.5 5c-1.3 1-2.5 2.1-3.6 3.2.9.6 1.5 1.2 2 1.7l3.8 4 1.3-1-2.8-4c.5-1 1.2-1.8 2-2.7a46.1 46.1 0 0 1 9-7.2l3.5 4.2 5.5 6.8a107.3 107.3 0 0 1-8.5 6.6c-.5.2-.8.4-1 .3 0 0-.9-.6-1.7-1.4l-1.3-1.4-1.2 1 .3.4 3.5 4.1 3.6 4.9 1.4-1.1-1-1.5a6 6 0 0 1-1.2-2c0-.4.1-.8.5-1.3a130.2 130.2 0 0 1 8.2-6.7 172.5 172.5 0 0 1 9.3 11.8 109 109 0 0 1-10.2 8.1c-.8.5-1.6.9-2.4 1L89.4 74l-2.7-2.3-1.3 1c2.5 2.5 4.5 4.6 5.9 6.5 0 0 2.8-1.8 4.4-3.1l12-9.7 5.4-4M50.6 78.2l2.3 1.3 1-1.4c-3.5-2.3-5.8-4-7-5A911.1 911.1 0 0 1 38.5 86 459.6 459.6 0 0 1 30 98l7.3 4.6 1-1.4-2-1.6a33 33 0 0 1-2.2-2V97l1.3-2.3 1.9-3 1.7-2.6 5.8 3.6 12.6 8.5a80 80 0 0 1 7.9 5.9v1.1s-.7 1.6-1.8 3.3l1.3 1 3.7-6 4.7-6.5-1.4-1c-1.1 1.7-2 2.7-2.3 3-.4.3-.7.4-1 .4-.4 0-1.2-.3-2.3-1L60 97.3l-12.6-8.5-2-1.4L42 85l2.1-3.2a42 42 0 0 1 3.2-4.3c.3-.3.5-.4.7-.4 0 0 1.3.4 2.7 1.1m-4.5 74 1.6.5 2-6.9 2.7-7.5-1.6-.5c-.6 2-1.1 3-1.4 3.5-.3.3-.6.6-.9.6-.4.1-1.2 0-2.5-.4l-7-2.2-11.5-3.7a300 300 0 0 1-6.5-2.2c-1.6-.6-2.5-1-2.7-1.3a2 2 0 0 1-.3-1.1s.2-1.7.8-3.6l-1.5-.6-2.2 7.3-2.5 7.2 1.5.5 1.4-3.5c.3-.3.6-.6 1-.7a1285.9 1285.9 0 0 0 9.6 2.6l11.3 3.8 6.6 2.2c1.5.6 2.4 1 2.6 1.3.3.3.4.6.4 1.1 0 0-.3 1.7-.9 3.6m283.1 32.5h-1.7l.2 7.7-.2 7.3h1.6c0-2 .2-3.2.3-3.7l.6-1 2.5-.3H359a8 8 0 0 1 3 .4c.2.2.5.5.6 1l.3 3.7h1.6a262 262 0 0 1-.1-7.7s0-4.2.2-7.4h-1.7c0 2-.1 3.3-.3 3.7-.1.5-.3.8-.6 1-.3.1-1.2.3-2.5.3l-7.4.1h-5.4s1.4-2 2.7-3.3l3.1-3.2 5.9-5.8s3.6-3.5 4.3-4h1.9l-.1-4.9v-4H363c0 1.6 0 2.7-.2 3.3a5 5 0 0 1-.8 1.7l-4.4 5L348 185l-14.6-15.5a61 61 0 0 1-3.8-4.3l-.4-2h-1.6a99.8 99.8 0 0 1 0 7.4l4.2 4.3 2.6 2.7 11 11.7-.3.6h-5a226.4 226.4 0 0 1-9.9-.5c-.3-.2-.5-.5-.7-1 0 0-.2-1.6-.2-3.6" style="fill:#363639;fill-opacity:1;fill-rule:nonzero;stroke:none"/>
        </g>
      </g>
    </g>
    <g clip-path="url(#d)">
      <g clip-path="url(#e)">
        <g clip-path="url(#f)">
          <path d="M140.3 281.3c-.5-5.4-7.8-12-1.3-16.5.9-2.4 3.9-3.5 4.6-6.6 1.9-.4 4.1-1.2 4.6-3.3 1.2-3.5-5.5-7.6.7-9.3 2.2 1.8 4 4.9 6 7.3l.6-.7c.5.7 1.6 1.1 1.3 2l.7-.6c5 4.5 13.2 2.2 19.8 3.3 4.3 0 9-2.7 12.6-.7 8.8-.8 15.9 4.2 23.8 3.3 2.4-2.2 4.8 1.5 7.3-.6 4.3 5 7.6 10.5 9.9 16.5-1.2 1-.5 2.6-.7 4l1.3 1.3 1.4-1.3c.6-8.8-5.7-14.6-8.6-21.9 8.2-6.1 20-3.4 27-12.5h17.3l-.7.6c7.2-3.9 15.8-5.4 20.5-13.9 2.3-8-1.3-15.4-2-23.1 4-3.4 7.4 4 10.6-1.3 5.8 3.2 9.6-2.2 11.3-6.6-.4-8.1 12.8-9.4 8.5-17.9-9 3.2-11 14-18.5 18.5.1.7 2 1.2 1.4 2.7-2.6 3.4-8 1.8-11.3 1.3-.4-.8-1.2-.7-2-.7l-.6.7.6.7c-2.4 3.4-8.8 1.8-12.5 1.3-1.3-.5-2.3-1.7-3.3-2.7 2.3-8.2.6-18 4-25.8 1.3.5 2.2 1.9 3.9 1.4 1.2-.5.5-1.8.7-2.7a9 9 0 0 1-5.3-3.3c1-5.8 2.9-11.3-.7-16.5-.5-3.1 1.1-7-1.3-9.3 5.4-5.5 13.4-4.8 18.5-11.2a95.6 95.6 0 0 0 29-23.8c-9 7.5-19 14.4-27.7 21.8-7.3 2.6-13 9.5-21.1 10-5-5.4-7.5-11.7-12-17.3 8.5-3.4 18.1-3.8 26.5-7.2v-.7c-9 2.2-18.5 3.4-27.1 6.6-6.5-3.4-11-11.8-17.9-14.5l-2-2c23.2-2.7 46-8.3 69.5-8l2-2c-25.3.7-48.6 6.3-73.4 8-2.7-1.7-7.3-3.3-7.3-7.3 11.9-9.2 26.5-11.8 39.7-17.8 7-2.7 15.1-2.6 21.8-6l-.7-.6c-23.3 3-43.3 13.9-64.1 23.1-2-3.6-8-4.4-6.6-8.6 14.5-14.4 26.2-30 33-47.6-3.7 5.9-6 12.4-10.5 17.8l-.7-.6c3.4-7 6.8-15 7.3-22.5-5 14.5-10 29-21.2 41-3.6 2.5-8.2 8-13.2 10a55.2 55.2 0 0 1-19.2-14.6l-.6.6c-8-6.2-8.1-15.7-13.3-23.1l-.6-4.6c-2 .4-4.8-1.2-6 1.3a26 26 0 0 0 3.3 19.2c-.4 5.4-7.6 3.1-11.2 5.2-7 4.9-14.7 5.3-19.9 13.3l1.4 1.3c-4.6.3-7.1 6.7-10.6 9.3-.3-3.6-4.2-3.8-6-6.7 7.2-4.5 7.2-12 13.3-16.5-.2-1.6 1-2.8.6-4.6-5.8-2 .2-7.5-2.6-11.3-2.4-2.5-5.3-.4-8 0 .2.6-.3 1-.6 1.4 2-1.5 4.8-2.9 7.3-1.4l.6.7a20 20 0 0 0-10.6 4c-4.5-.8-6.6 6.6-11.2 4-7.1 3.7-16.5 2.1-23.1 7.2-6.3-7-14.4-15-19.9-22.5-1.2.5-.4 1.8-.6 2.7C83.4 58.2 89.4 67 95.3 73c-1.8 2.2-4.5 3.5-5.3 6.7-7-4.3-8.9-11-14.5-16-.9-.8-.5-3.3-2.7-2.6l-.6.7c-4.4-2.4-7.4 4-10.6 5.3-3.4 1.5-2.6 6-4.6 8.6 2.3.9 5.7.3 6.6 3.3-3 1.8-10.6-4.2-10 2.6v2.7l2-4c1.6 1.1 5.1.2 4.7 3.3l-.7.7c-.4-.8-1.2-.7-2-.7-.8 3.5 6.8 3.5 2.7 6.6h-2c3.4 2.6 4.6 6 8 8.6-1 2.8-4.2 6.3-6.7 6.6h-2c.1 2.7-3 .4-4 2-2.5-2-4.2 2.3-6.5 2.7 1.5 1 2.1-2 3.3 0 .5 1.6-1.5 2.9-2.7 3.3l-2-1.3c-.5 7 6.8 13.2 1.4 19.8-.8 4.6 1.5 8.7.6 12.6-1.5.5-2.2-.9-3.3-1.4.2.6-.3 1-.6 1.4.7 2 2.9.6 4 2-.4.3-1 .7-.7 1.3.9.2 1.3-.9 2-1.4l2 2.7c0 2.1-.5 6.1.6 8.6-4 1.8-2 5.1 0 7.3 5.5 5.2 12.4 9.3 20.5 6.6-2.2-2-4.7-.3-6.6-.7-5 .5-10.7-2.8-14-7.3-.1-.6.4-.9.7-1.3 1.3-.4 1.9.6 2.7 1.3v.7c.6.2 1-.3 1.3-.7 1.3 1.8 3.1 2.2 4.6 3.3-2.4-.8-5.4-3.2-6-6 1.2-.9 3.6-.9 4.7 0l.7.8c1.2-3 4.4 0 6.6 0 1.7 0 1 1.6 2.6 2 .4-.9 1.3-.7 2-.7 3 1.2 1.7 4.2 2 6.6l1.3-1.3c1.4 4.9 7.2 9 10.6 11.9l-3.3 2.6-2-4c-1.6-1.3.6 0 0 .7l.7.7-.7.6c.9.4.7 1.3.7 2-1.8.2-3.5 2.5-5.3.7-.1-1.2-2.2-.5-3.3-.7l-3.3 3.3c1.3.9.3 2.3 0 3.3-1.1.9-2 2.5-3.3 2.7-2-1.2 1-1.8 0-3.3l2-2c-.4.3-.8.8-1.4.6l-.6-.6c1.7-1.7-.9.5 0 1.3l-1.3 1.3c-3.2-2.4-8.4-5.9-5.3-10.6 1-.4 1.7-1.8 3.3-1.3v-.6c-3-1.2-3.3 1.7-4.7 3.3 0 3.1.9 6 3.3 8.6 1.2.2 2.7-.6 3.4.6-1.2.7-1.7 2.7-3.4 2l-.6-.7c-2.3 1.7 2.6 2.9 0 4.7l-6.6-2c1.2 0 1.8 1.3 2.6 2l-1.3 1.3h-5.3c-.8.4-.7 1.3-.7 2 3.8-2.3 9.2-.7 12.6-4 2.1.3 2.2 2.7 3.3 4l-.6.6c1 2.8 3.3 6 2.6 8.6l-2.6-2-1.4 1.4c2.5 1.3 3.3 4.6 4 7.3-.2 3.7-5.4 8.4-.7 11.2l.7.7-.7.6c.5 2.7 4.1.3 5.3 1.3v-.6c-1.9.3-2.4.2-4-.7-.1-.6.4-1 .7-1.3-1 .3-1.3-.9-2-1.3-.8-3.8 1.2-6.4 2.7-9.3 1 .1 1.5-1.1 2.6-.6l.7.6c-1.1-1.6-1.1-2.4 0-4 1.5-.5 2.2 1 3.3 1.4-.6-1.8-2.9-3-2-5.3.4-.4.7-.9 1.3-.7.5.7 1.6 1 1.4 2 1.5-1.1-.6-3.8 2-4.6l1.3 1.3c-.2-.6.3-1 .6-1.3 1.1.2 2.7-.6 3.3.6-.8.8-.8 2-2 2.7-.4-.4-.7-.9-1.3-.7 2.7 3.4-2.6 9.2 2 12.6l7.3 6c-.9.6-1.5 2-2.7 2 0 .6-.1 1.5.7 1.9.7-1.1.6-2.5 2-3.3 1.6 0 2.9.6 4 2-3 1.2-4.5 5.8-8 2.6h-.6c1.6 2.5 2.3 6.2 2 8.6H88c-.5-2.4-1.9-5.3-1.4-7.3 5.5-1.6 2.7 4.8 5.3 6.7-.4 1.1-1.8.4-2.6.6-.2 1.3.5 3-.7 4-2.4-1-.7 2-2 2.6l-3.3 1.4c4.9 1.3 6.2 6.5 7.3 10.5-.4.4-.7.9-1.3.7l-1.3-1.3c.2 1.1-.6 2.6.6 3.3l-5.3 2c1.6 0 3.3-1.6 4.7 0l-.7.6 2.6 2.7-.6.6c-.5-1.2-1.8-.4-2.7-.6l-.6.6a13.4 13.4 0 0 0-8.6-4l2 1.4c-1 1.2-2.7.4-4 .6 3 1.2 7.2 3.5 10 1.4-.2 3.7 5.4 3.3 4.5 7.2l1.4 1.4c.3-1.6-1.7-3 .6-4-.6-.2-.9.3-1.3.7-1.1-1-.4-2.6-2-3.3 1.3-1 4-1 5.3 0 1.2 1 .5 3 .7 4.6.8.2 2.2-.5 2.6.6-.2-1.5-2.4-2.3-2.6-4l1.3-1.2c.4.3.7.8 1.3.6l-.6-.6.6-.7c-1-.7-3.2-1.1-3.3-3.3l1.3-2 4 4-.7.6h2.7l-1.3-1.3c.6-1.2 2.1-.5 3.3-.7-1.8-2.8-6.1.2-8-2.6 1-1 3.3-1 4-.7v.7c1.5.5 2.2-.9 3.3-1.3 1.8 2 3.1-1 5.3 0-2.2-1-4.8-.7-6.6-2.7 2.4-1.8 4.8.5 7.3.7-1.5-1.8-4.1-.8-5.3-3.3-1 1.1-3 .8-4 0l2 1.3c-.5 1.2-1.8.5-2.7.7-4.3-1.3-1.4-7.4-6.6-6.6 0-1.5-.3-3.1 1.3-4 1.6 1.2 2.8 1.2 4.7.7-.2-2.6-4-1.8-3.3-4.7 2.4-.1 3.7-3 6.6-2v-.6c-1.1 1.2-3.1.4-4.6.6-.7-.8-2.1-1.4-2-2.6l.6-.7c-.7.7-4-.7-4.6-3.3-.6-2.5.7-4.3 2.6-6 .8 0 1.6.3 2-.6-1.5-1-3.5-.6-4.6-2.6.4-.8 1.3-.7 2-.7v-1.3c-2.5 4.5-6.2.1-8.6-1.3-2-3.2-4.4-6.5-2.7-10.6 2.2-2.4 4.6 2.4 7.3 2.6l.7.7c-.4-3-8.8-3.2-5.3-7.3 5 3.6 9.7 7.8 15.9 8.6v-.6c-.6-.2-1 .3-1.4.6-2.5-2.1 1.9-1.2 1.4-3.3l-1.4-1.3c-.2.8.6 2.2-.6 2.6-3.1 1-4.7-1.5-6.6-3.3-.2-.6.3-.9.6-1.3 2.2-.5 3.5.9 5.3 1.3-1.2-2.5-7.4-.1-6.6-4.6 1.8-3.2 4 .5 6.6-.7l-1.3-1.3c1.5-1.8 3.1.5 4.6.7 4.2 1.5 1.3 5.9 4 8 .1-1.7-1.5-3.3 0-4.7 1.8.1 1.8 2.2 2.6 3.3-1.9-3.8-4-5.8-6.6-9.3-.2.6.4 1 .7 1.4-2.9 1.3-5.3-2.4-8.6-2-.5-2 1.8-2.7 2.6-4 .6-.2 1 .3 1.4.7 1.5-3.7-2.4-2.8-4-4l-.7-.7c.4-.3.8-.8 1.3-.6l-1.3-1.4c1.3-1.7 2.4.6 4 0-.2-2-5.4-1-3.3-4l3.3.7c-.5-.6-1.6-1-1.3-2 .9-1.1 2.6-.4 4-.6 1.7 1.1 1.6-1.9 3.9-1.3.3-1-.9-1.3-1.3-2 2.2-1.9 5.3-1.8 8-2.7 5.4 9 5 20.3 10.5 29.1.4 5.5 3.3 9.2 2.6 14.6 4.5 1.6-.8 6.7 4.7 8 2.6.2 4.7 1.7 6.6 3.9 1.5 3.8-.5 8.3 2.6 10.6 3.3.3 6.2 1.6 8.6 4 4 8.6-7.6 10.8-9.9 17.8-2.4 6.7 4.1 10.3 4.6 15.2l.7-.7M80.8 274l-2 .7h2v-.6" style="fill:#000;fill-opacity:1;fill-rule:nonzero;stroke:none"/>
          <path d="M94 274c-.4-.3-.7-.8-1.3-.6l.6 1.3.7-.6m-5.3-2.1c-2.4-1-4.7-2.1-7.3-2.6.5 2.9 4.5 2.8 7.3 2.7m4-.7h1v1h-1v-1zm-15.9-2.6v.6h.7l-.7-.6m-11.8-4 .6 1.3v-.6l-.7-.7m3.3-1.3.7.6.6-.6h-1.3m7.3-.7c-6.3 0-10.7-4.6-15.9-7.2 2.5 1.2 1.5 7 5.3 4.6 3.1 1.8 7 1.8 10.6 2.6m-19.2-7.2c.2 3 2 3.7 4 5.9-.6-2.2-2.4-4.7-4-6m-4.6-4.5c-.1 3.6 1.3 4.8 2.6 7.9l-2.6-8" style="fill:#000;fill-opacity:1;fill-rule:nonzero;stroke:none"/>
          <path d="M93.3 254.2H92c0 3 4 1 4 4 .5-2-1.8-2.6-2.7-4m124.4.7c-.9-.2-2.2.5-2.7-.7 2.3-2.4-1.3-5.7-2-8.6-1.3-6.6-9.4-13.7-2.6-20.5 4.4 0-.1 3.6 1.3 6 .2 7.2 4.4 12.7 6.6 19.2 1.5 1 2.2-2 3.3 0-.3.4-.8.7-.6 1.3 1.8-.4 4-1.2 4.6-3.3 5.7.1 11.4.2 15.9-2.7.3.4.8.8.6 1.4l-.6.6c3.8-.5 5-3.4 8.6-4.6-2.9-1.4-3.8-5.9-4.7-9.3l1.4-1.3.6.7c.4-.8 1.3-.7 2-.7-.3-1 .9-1.3 1.3-2 1.1 5.6 6.1 9 10.6 12 6.4-1.7 13.6-1.6 18.5-6.7-.7 0-1.6-.1-2 .7-1-2.6-2.5-.2-4 0-5.4.8-12.6 1.8-16.5-3.3a7.2 7.2 0 0 1-2-8.6c3.4-5.4 7.7-12 4-18.5-.4.8-1.2.6-2 .6-1-1.6-1-2.4 0-4-8.1-5.6-18.8-7.7-28.4-11.2a162.6 162.6 0 0 0-53.6-8c-1 7-5.5 12.6-7.2 19.3-7.6 7.8-20.6 6.4-30.5 4.6-11.7-4.1-17.5-16.4-18.5-27.8-.9-2.4-3.5-.9-5.3-1.3-2.4 5.5 1.5 11.6 2.7 17.2 2.2 5.5 3.2 11.7 7.3 16.5 2.1-.7 4 .9 4.6 2.7-.6 2.5.7 4.3 2.6 5.9-1.5 2-5.4 1.3-5.3 4.6.4 4.8 6.5 4.1 9.3 7.3 5.8 2.7.8 12.1 8 12-.5-2 .4-3.5 2-4.7 1.1.4.4 1.8.6 2.6l2.6-2.6 1.4 1.3-2 2.6c1.2.1 1.8-1.3 2.6-2-1.2-.4-.4-1.7-.6-2.6l.6-.6c4 4 6.3 12.2 13.2 13.2.2.6-.3 1-.6 1.3 3 1.3 8.7.2 13.9 1.3 4.8-1.1 10.5-.2 14.5-3.3 2.2.8 5.2-.4 8 0 5.4.2 10 2.2 15.2 3.3-.8.9-1.8 1-2.7 1.4 1.6.7 4.8 1.5 6-.7" style="fill:#fff;fill-opacity:1;fill-rule:nonzero;stroke:none"/>
          <path d="M69.5 255.6c-2.3 1-4-2-6 0h6m39.7-2 .7-.7-1.3-1.3c.3.4.8.7.6 1.3-2.4.6-4.7-2.7-8-2 2.9 1.4 5.4 3 8.7 3.3l-.7-.6m6-.6h-2c.6.4 1 1.5 2 1.2V253" style="fill:#000;fill-opacity:1;fill-rule:nonzero;stroke:none"/>
          <path d="M207 253.6v.6h.7l-.6-.6" style="fill:#fff;fill-opacity:1;fill-rule:nonzero;stroke:none"/>
          <path d="M88 253v-.8l-1.3 1.4c.6.2 1-.4 1.4-.7m96.5-1.9-8.6 1.2v.7c3.3.3 6.2-.3 8.6-2m-101.8-.6c-1.6.2-2.4-3.6-4-1.4 1.3.5 2.4 1.6 4 1.4" style="fill:#000;fill-opacity:1;fill-rule:nonzero;stroke:none"/>
          <path d="m236.2 249.6 2-.7-2 .7m-147.5-2v1.3l.7-.6-.7-.7" style="fill:#fff;fill-opacity:1;fill-rule:nonzero;stroke:none"/>
          <path d="M110.5 247.6c.5 1.2 1.8.5 2.7.7-4.8.6-7.6-3.7-12-4 1 1.3 5.8 2.7 8.7 4l.6-.7m4.7 0-.7.7h1.3l-.6-.7m7.2.7-.6-3.3.6 3.3m-44.9-2.7c-1.8-.2-5.7.6-8-.6-5.1.2-6.6-5.5-11.2-5.3a4.2 4.2 0 0 0-3.3-3.3c4.4 3.7 8.7 7.6 13.9 9.2 2.4-.8 5.3 1.5 8.6.7v-.7m3.9-.6c-1.2-.7-2.3-1.5-4-1.4 1 .4 2 .5 2.7 1.4l-1.3 1.3c1-.3 2-.5 2.6-1.3m-17.8.6h1v1h-1v-1zm178.5 0h1v1h-1v-1zM59 244.3h1v1h-1v-1zm27-2-.6-.6c-.4.3-.7.8-1.3.6a1 1 0 0 0 2 0" style="fill:#000;fill-opacity:1;fill-rule:nonzero;stroke:none"/>
          <path d="M71.5 241.7c.7 1.2 2.2.4 3.3.6l-5.3-2.6c-.6.1-1.6 2-.6 2.6.8-.2 2.2.6 2.6-.6m39.7 0h1v1h-1v-1zm-.7-.7c-1.6.1-2.7-1.1-4.6-.7 2-.8 2.7 1.5 4.6.7m3.3-2.6 3.4 2.6-2.7-2.6h-.7m-52.8-2c-.8 2.2 1 1.7 2 3.3l.6-.7-2.7-2.6m5.3-2.7-2 .7 2 3.3c.6-1.6-1.8-2.7 0-4m209.7 4h1v1h-1v-1zm-215.6-3.3-1.3-2.7 2-1.3 1.3 2c2.5-1 3.3-2.9 2-5.3l-2-2c1.4 1.5 1.3 3.5 2 5.3l-.7.7c-2.5-1.5-3.8-5.8-6.6-6.6 1.8 1.8 4.8 4 2.6 6.6l-.6.6c-4.3-2.3-4.7-8.6-10-9.9 5.3 3.1 8.2 9 10.6 13.3l.7-.7M47 231l-2.6-3.9 2.7 4m.6-9.3-.6-.6-.7.6c-.4-.3-.7-.8-1.3-.6l4 7.9c-.5-2.4-4.2-5.2-1.4-7.3" style="fill:#000;fill-opacity:1;fill-rule:nonzero;stroke:none"/>
          <path d="M266.6 226.5c-1.5-3.4 2.2-6.1 4.6-8.6h1.3c-1.6-4.6-5.4-8.2-9.2-12 0 5.5 3 11.5 0 16.6 1.5 1.1.1 3.2-1.3 3.3.7 1.6 3.1 2.6 4.6.7" style="fill:#fff;fill-opacity:1;fill-rule:nonzero;stroke:none"/>
          <path d="m79.5 224.5.6-.7-.6.7m2.6 0h1v1h-1v-1z" style="fill:#000;fill-opacity:1;fill-rule:nonzero;stroke:none"/>
          <path d="m271.9 219.8-.7 1.4.7-.7v-.7" style="fill:#fff;fill-opacity:1;fill-rule:nonzero;stroke:none"/>
          <path d="M53.7 216.5c-.4 2.6 2.6 2.7 4 4l-4-4m9.3 2v1.3l.6-.6-.7-.7m-12.5 0c-.4-.3-.8-.8-1.4-.6.4.3.8.8 1.4.6m48.9-.6c-6-.4-11.6-1.6-16.5-4.7 5 4.1 9.7 6 16.5 4.7m-37.7-2.7 1.3 2 .7-.7-2-1.3" style="fill:#000;fill-opacity:1;fill-rule:nonzero;stroke:none"/>
          <path d="M123.1 217.2h1v1h-1v-1zm153.4 0h1v1h-1v-1z" style="fill:#fff;fill-opacity:1;fill-rule:nonzero;stroke:none"/>
          <path d="M226.3 212.6c1.5-2.5 2.8-5.8 1.3-8.6-2.4-4.8-8-4.5-12.6-5.3-3 .5-6.4.5-8.6 3.3a29 29 0 0 0 7.3 9.2c1.5 1.6 1.8 4.8 4.6 4.7 3-.2 5.3-2.2 8-3.3m-166.7 2.6c-2.9-1.7-7.4-4-8-7.3H51c1.6 1.8-.7 6.4 3.3 6 1.4-.7 3.5 1.2 5.3 1.3m2.7-4c-2-1-5.9-2-7.3-4.6 1.7 1.9 4.3 4.5 7.3 4.6" style="fill:#000;fill-opacity:1;fill-rule:nonzero;stroke:none"/>
          <path d="M66.9 210.6v.6h.7l-.7-.6" style="fill:#fff;fill-opacity:1;fill-rule:nonzero;stroke:none"/>
          <path d="M58.3 206.6h1.3-1.3" style="fill:#000;fill-opacity:1;fill-rule:nonzero;stroke:none"/>
          <path d="M89.4 204H86c-.8 2.7 2.4 1.3 3.3 2.6V204m127.7.6c-.6-.2-1 .4-1.3.7l.6.7c.4-.4.9-.8.7-1.4m-53.6-7.2c-.8-2.3 1.9-1.6 2.7-2.7 0-4.9 3-9.3 2-13.9 1.4-2.2 3.5-4 2.6-7.2 6.2-4.5 4.6-12.2 8-17.9-.5-1.5-1.9-2.6-1.4-4.6.8-2 3.9-1.2 2.7-4-1.2-.2-2.7.5-3.3-.7 1.7-4 4.2-7 2.6-11.9l3.3-2c-.4-1.1-1.8-.4-2.6-.6 0 .7.2 1.6-.7 2-.6.2-1-.3-1.3-.7 1.7-2-1.3-3.4.6-5.3 4.4-3.5 11.2-5.7 10.6-12.5-1.6 1-3.7 2.6-5.3 2 2.7-5 14.2-5.5 10-14.6-.4.9-1.3.7-2 .7l-2-2c.8-1.1 2.3-.5 3.3-1.3-2.2-3-5.2-6.7-8.6-8 .2 1.3 2.4 2.7.7 4-2-6.4-9.8-6.8-16-7.3-1.4 3-3.7 0-5.9.7-3.4.7-7 1-9.9 3.3 2.3 2.3-1.3 2.6-2 4-.4-.8-1.2-.7-2-.7-2.3 2.2-.6 7.3-4 8v2.6c3.1-4.7 9-8.3 11.3-13.3 1.9 1.8 5.2 1.7 6 4.7 1.2-2.5 3.7-2 6-2 2.6 1.8 3.4 4.5 3.9 7.3-11.4 7.4-10.4 21.3-14.6 32.4-2.8 8.8 3.2 20.6-2.6 29-5 .6-8.5-3-11.9-6.6-2.5 2.9-5.3 5-8.6 6-5.8-6-2.8-17.6-2.6-25.8-1-1.7-3.7-2.4-5.3-4-1.2 1.4-.5 3.5-.7 5.3 1.2 0 1.8 1.4 2.7 2-.4.3-.8.9-1.4.7l-.6-.7-.7.7c3-.7 2.7 3.5 4 5.3l-.7.6-.6-.6c-.2 1.8.5 4-.7 5.3.2 2.5-.9 6.2-3.3 8.6.7 0 1.6-.2 2 .6l-2 2c.6-.2 1 .3 1.3.7-2.4 2.7-.9 5.8-1.3 9.9.7 0 1.6-.2 2 .6-2.9 6.7 2.2 13.3 3.3 19.9 8.5 6.6 25 16.2 33 2m-95.2 3.3c-.4-.4-.7-.9-1.3-.7 0 .7-.1 1.6.7 2-1.6.7.5 1 0 2 1.1-.7.4-2.2.6-3.3m4 .6.6 2V202l-.6-.7m21.8 2c-.4-.8-1.2-.6-2-.6.4.8 1.3.6 2 .6" style="fill:#fff;fill-opacity:1;fill-rule:nonzero;stroke:none"/>
          <path d="M64.3 202c-1.6-1.4.5 0 0 .7v-.7" style="fill:#000;fill-opacity:1;fill-rule:nonzero;stroke:none"/>
          <path d="m86.7 198-.6-.6c1.8-1.4 3.5 1.3 5.3 2v.6c1.4-.8 1.3-2.2 2-3.3-2.5-.7-4.4-1.7-6.7 0-.8 1.5-.6 4.4-3.3 4l.7 1.3c1.6-1 3.4-1.4 2.6-4" style="fill:#fff;fill-opacity:1;fill-rule:nonzero;stroke:none"/>
          <path d="M90 200.7c-.4-.4-.7-.9-1.3-.7l-.6.7a1 1 0 0 0 2 0m176.5-2a130 130 0 0 0 2.6-34.4c-1.5-2-2.4-4.1-2.6-6.6l-1.3 2c-2.7-7.5-2.3-16.2-8-22.5-1.7-3-4.8-5.3-7.2-8-2.4 4.4-7-.3-10 4-1.5-1.8-3 .5-4.6.7l-1.3 1.3-.7-.7C217 140 201.7 149 185.3 155c-1.7 6.6-3.4 13.1-9.3 17.9.7 3.1 2.8 3.8 5.3 5.3-1.8 1-4.8 1-6.6 0 .7 2.6 4.7 3 7.3 4 6.3 1 11.9-2 17.8 0-5.7-2.2-12.8-1.2-18.5-3.4l6.6-1.3c10.4 2.1 21.6 4.2 32.4 3.3 11.4 4.3 21.6-2.3 33-2 3-3 7.5-2.1 11.3-3.3l1.3 1.4c-4.9 3.7-11.4 3.5-17.2 5.3-15 3-31.2 3-46.2 0 7.4 3.8 16.7 3 24.4 5.9 12.4 3.7 24.8 7.4 36.4 13.2 1.8-.6 1-3.4 3.3-2.6M74.8 200c.1-1.2-1.3-1.8-2-2.6 1.1-2.6 2.7-.4 4 0l3.3-3.3c-.8-.2-2.2.5-2.6-.7 1.6-2 2.9-2.2 3.3-4.6 2.1-.6 1.2 3.8 3.3 1.3-.3-2.3-3.4-5.4-5.3-5.3 1 1.1 1 3.5 0 4.6-2 5.2-11.5 2.1-8.6 8.6 1.2 1.5 2.6 2.4 4.6 2m8.6-2v.7h.7l-.7-.7" style="fill:#fff;fill-opacity:1;fill-rule:nonzero;stroke:none"/>
          <path d="m77.5 194-2 1.4h.7l1.3-1.3" style="fill:#000;fill-opacity:1;fill-rule:nonzero;stroke:none"/>
          <path d="m90.7 192-2.6.7h2l.6-.6m219.5.6h1v1h-1v-1z" style="fill:#fff;fill-opacity:1;fill-rule:nonzero;stroke:none"/>
          <path d="m51.7 192-3.3-3.2 3.3 3.3" style="fill:#000;fill-opacity:1;fill-rule:nonzero;stroke:none"/>
          <path d="M77.5 187.4c-.4-1.9-2-2-2.7-3.3a4 4 0 0 0-4.6 2.7c2.7 2.2-2.3 2.8-.7 5.3 3-.6 7.3-1.2 8-4.7" style="fill:#fff;fill-opacity:1;fill-rule:nonzero;stroke:none"/>
          <path d="M58.3 191.4c1-2.6-1.6-4.4-3.3-5.3-1.7.2-2.8-1.1-4.6-.6 1.6 3 4.9 5 7.9 6" style="fill:#000;fill-opacity:1;fill-rule:nonzero;stroke:none"/>
          <path d="M56.3 189.4c-1.1-.8-1.9-2.4-3.3-2.6.1 1.8 2.2 1.8 3.3 2.6m31.1-2c-.1-1.6-3.5-2-1.3-4h-2c-.3 2 .7 5.1 3.3 4m1.3-1.9h1v1h-1v-1zm1.3-2 .7.6 2-.6H90" style="fill:#fff;fill-opacity:1;fill-rule:nonzero;stroke:none"/>
          <path d="M55.7 182.2c-.6.2-1-.4-1.4-.7v-.7c-1 .9-1.2 1.5-.6 2.7.9.2 1.3-.9 2-1.3m98.5-5.3c-5 .6-4.8-7.8-9.3-4-1.1 3.5 1.8 5.3 2.7 8 2 1.8 4.8 1.7 7.2 2.6 1.7-1.3.3-4.7-.6-6.6m-12.6.6c.3-2.4-1.4-4-2.6-6-2.7 3.2-10 4-8 10 3.9 3.4 8.6-.3 10.6-4m-76-2.6-1.3 1.3c6.2-3.3 10 2.7 13.8 6-2.4-3.9-7-8.2-12.5-7.3m174.5 2c.7-3.1-.7-5-3.3-6h-1.3c1.1 1.5 3.7 2.5 3.3 4.6-2.2 2.9-5.7 2.8-9.2 2.7-16-2-32-5.3-43.7-15.9 9 12 28.3 14.9 44.3 17.9 3.3-1.2 7.5-.2 10-3.3m-184.5 0h-1.4c.2.8.6 2 1.4 2v-2" style="fill:#000;fill-opacity:1;fill-rule:nonzero;stroke:none"/>
          <path d="M107.9 176.9h1v1h-1v-1z" style="fill:#fff;fill-opacity:1;fill-rule:nonzero;stroke:none"/>
          <path d="M77.5 175.5v.7h.6l-.6-.7" style="fill:#000;fill-opacity:1;fill-rule:nonzero;stroke:none"/>
          <path d="M119.1 172.2c-2.4.2-5.3-.5-7.2.7l.6 3.3c2-2 9.3 2.1 6.6-4" style="fill:#fff;fill-opacity:1;fill-rule:nonzero;stroke:none"/>
          <path d="M59.6 174.2v-.6c-1.1.2-2.6-.6-3.3.6 1.7-.6 2 1.3 3.3 0m15.9-.6-.7.6h.7v-.6m-20.5 0c-2.1.3-3.1-2.2-4.6-3.4.8 1.4 2.1 4.3 4.6 3.4" style="fill:#000;fill-opacity:1;fill-rule:nonzero;stroke:none"/>
          <path d="M97.3 171.6c-4.2-2.5-9.2-3.1-13.9-4.7 2.1 6.5 9.4 5.2 14 5.3v-.6m11.2-4c-3.8 1.5-6-2.4-8-4l-21.8-6-.7.7c-1-.4-.4-2.2-2-2-.2 1 1 1.4 1.4 2l-.7.7c6.8 7.5 18 7 27.1 10.6h4.7v-2m10.5 0c.4-10.6 4.7-20.3 4-30.4-.1-1.9-2.2-1.8-3.3-2.7-3 7.8-5 16-6 24.5.8.9 2 .9 2.7 2-1.1.5-1.8 1.8-3.3 1.3l-1.3 7.3c2.7.1 5.4 0 7.2-2" style="fill:#fff;fill-opacity:1;fill-rule:nonzero;stroke:none"/>
          <path d="M65.6 169c0-.8.2-1.7-.7-2-.6-.3-1 .3-1.3.6.7.5 1 1.6 2 1.3m-17.9-7.2h-.6c-.4 2.7.2 5 2.6 6.6-.2-2.4-2.2-4-2-6.6M57 167l-.7-.7.7.6" style="fill:#000;fill-opacity:1;fill-rule:nonzero;stroke:none"/>
          <path d="M106 157c-5.6-2.8-11.5-4.7-16.6-8.6-.3 2-2 3.2-3.3 4.7-4-1.9-5.6-4.2-8-7.3l.7-.7-2.6-2c-1.8 1.2-4.6-2.5-6 1.4-.3 2.3.3 4.3 2 6h.6c1-2.7-5-5.5 0-6.7a15 15 0 0 1 2 9.3c9.2 4.1 19.5 5.7 28.5 10.5l6 .7c2.1-3-.9-6-3.4-7.3" style="fill:#fff;fill-opacity:1;fill-rule:nonzero;stroke:none"/>
          <path d="M66.2 163.6h1v1h-1v-1z" style="fill:#000;fill-opacity:1;fill-rule:nonzero;stroke:none"/>
          <path d="M154.8 161.7c2-15.2-3-29.1-6-43-5.5-2-1.9 4.7-3.9 6.6l.7 2-1.3 27c1.4 5 6.5 6.2 10.5 7.4m-13.2-6c1.5-6.1-.1-11 1.3-17.2-.3-.4-.8-.7-.6-1.3l.6-.7c-1.2-.6-.4-2.2-.6-3.3.2-3-.6-8.3.6-11.9-.3-1-.4-1.9-1.3-2.6-5.5-1.5-3 4.8-4.6 7.2a193 193 0 0 0-2 33.8c2.8 0 4.7-2 6.6-4" style="fill:#fff;fill-opacity:1;fill-rule:nonzero;stroke:none"/>
          <path d="M47 153c1 1.1.7 2.6.7 4l-1.3 2 2-.7-1.3-5.2" style="fill:#000;fill-opacity:1;fill-rule:nonzero;stroke:none"/>
          <path d="M63.6 157c0-.7-.1-1.6.7-2-1 .3-1.4-.8-2-1.3-.2-.6.3-1 .6-1.3l.7.7c.8-.4.7-1.3.7-2-.7-1.2-2.2-.5-3.4-.7l-.6.7c-2.3-.8-4.1-.2-6.6-1.3 2.2 3.5 5.8 6.8 9.9 7.2m46.3-.6c-1-10 7-16.4 6-26.5l-2-2c1-2 3.7 1.9 4-1.3l-3.4-3.3c-4 5.5-.2 15.4-3.3 21.8-2.4-1-.8-3.7-2-5.3-.2 1.6.5 3.5-.6 4.7-2.4-4.9-3.5-11-2-16.6a7 7 0 0 1 1.3 5.3c-1.2-2.8 2.5-5.3-.7-7.3l-.6.7c-1-3-3-5-6-6-1.5 9.5-7 17.2-10.6 25.8 4.2 1.6 8.1 5.8 12.6 4.7.5 3.7 4.6 4.2 7.3 5.3M55 155c.6-2.5-2.5-1.9-3.3-4 .3 2 0 5.4 3.3 4m140.2-6.6c7.5-3 14.6-7.2 21.8-11.2 10.6-2.6 20.4-7.4 31-10-9.6-4.9-14.7-23.5-29-14.5l-13.2 4c-8.8 7.3-14.9 17-21.2 25.8l1.3 9.9c3.1-1.3 5.6-4.2 9.3-4m-137.6-5.3c-.4.4-.7.9-1.3.7l-1.3-1.3c.4-.8 1.3-.7 2-.7-.2-.6.3-1 .6-1.3 2 1.3 3.7 2.8 6 3.3 1.2-3.4-8.6-4.3-1.3-5.3-1.5-2.4-2.7-1.3-4.7-.7-.9.3-1.3-.8-2-1.3-.1-2.6 2.8-.3 3.4-2.6l-2.7-2.7c-2.1.6-1.2 3.5-3.3 4.7 1.2.8 1.5 1.9 1.3 3.3.6-.2 1 .3 1.4.6.2.6-.4 1-.7 1.4-.4-.8-1.3-.7-2-.7.2.6-.3 1-.7 1.3 1 .2 2.2-.5 2.7.7l-.7 2.6 9.3 4c1.4-4.6-4-4-6-6M94 118c-2.6-3.5-5.3.9-8 1.3-4.6 4.5-7 9.8-10.5 14.6a9 9 0 0 1-5.3-3.3c3.4-5.1 4.6-12.3 10.6-15.2-6.6-1.2-10.8 6.2-14.6 9.2-1.3 3 2.2 3.9 2.7 6-.4.3-.7.8-1.3.6l-.7-.6c-.9 3.5 3.4 3.2 4.6 6 1-2.4-5-3.7 0-4 4 2 2 9 8 7.9l4 3.3c2.5-8.4 9.4-16.2 10.5-25.8m-43 13.9c.4.4.9.7.7 1.3.6.2 1-.3 1.3-.6-1.2-.7-.5-2.2-.7-3.3-2 .2-.6-2.1-2-2.7l-.6.7c1.2.4.5 1.8.7 2.6-3.3 3.8-2.4 8.4-.7 12.6 1.7-3.9-1.7-7.4 1.3-10.6" style="fill:#fff;fill-opacity:1;fill-rule:nonzero;stroke:none"/>
          <path d="M108.6 137.2h1v1h-1v-1zm15.8-4c-.1-2.1-2.2-2.8-3.3-3.3.4 1.4 2 3 3.3 3.3M65 122c-.7.6-2.3 1.8-.7 2.6 1.1-.4.4-1.8.6-2.6m129.6 2.6 4.6-5.3-4.6 5.3m-82-3.3-.6 2.7.6-.7v-2m-3.3 1.3c.8-4.8.5-10.6 5.3-13.2 5.3-1.4 8.5-7.7 13.2-10.6l-2-2.6 1.4-1.3h-4l2.6 2c-7.2 4.2-16.2 4.6-23.1 9.9v1.3l3.3-2.7.7.7c-3 3.5-4 7.8-5.3 12 2 1.5 5 3.5 8 4.5m25-2.6c-4.8.7-3.7-6.4-7.9-6l-3.3-3.3c-1.5 3.2-4.8 1.8-6.6 4 3.7-4.1 7.7.1 11.9 0 1 3.4 3 5.3 6 7.3v-2m-72.1 0c.5-1.7-.9-2.7-1.4-4-1.5 1.3 0 4.3 1.4 4m.7-6.6h-.7c-.8 2.8 2.7 3.8 2 6.6.9-1.4 1.3-5.9-1.4-6.6m-7.9.6c-.4-.7-2.2-2-3.3-.6l.6 4L55 114m80.7 2.7c-1 .3-1.4-.9-2-1.3v-.7l-.7.7 2 2 .7-.7m81.3-11.9c.2-3-3.2-3-4.6-4.6-5.6 1.5-9.5 7.1-14.6 9.9l-1.3 7.2c8-1.1 14-7.4 20.5-12.5m-48.3-4c-5.7-5.9-6.2 4.7-11.2 6.6-2.5 3.1-9.3 4.7-7.3 9.3 7-2 15.8-8 18.5-15.9m-121 14.6h1v1h-1v-1zm21.2-1.4c0-.7.2-1.5-.7-2h-2.6c.2 1.4 1.6 5.5 3.3 2m72.7-3.3-2.6 4 3.3-3.3-.7-.7m17.9-9.9c-.1-2-1-3.2-3.3-2.6-3.9 4.7-9.5 9.9-12 15.8l.7.7c6.2-2.9 9.4-10 14.6-13.9M96 114c.3-3.3 1.8-6 4-8.6-.4-.3-.9-.7-.7-1.3a12 12 0 0 0-5.3 10h2m18.5-.1.7-.6-.7.6m21.2-9.2c-2.9 1.7-3.5 5.5-6 8l.7.6c.3-3.5 5.6-4.8 5.3-8.6m-41-.7c-2.6 0-3.7-3.3-6-4-.4.7-1.6 1.1-1.3 2 .7 2.2-2 4.7-4 6.7l-2.6.6c3 6.2 4.8-.1 9.2 0 1.3-2.4 4.8-2.2 4.7-5.3" style="fill:#fff;fill-opacity:1;fill-rule:nonzero;stroke:none"/>
          <path d="m322.8 111.4-1.3 1.3h1.3v-1.3" style="fill:#000;fill-opacity:1;fill-rule:nonzero;stroke:none"/>
          <path d="M225 109.4c-1 .3-1.4-.8-2-1.3l.6-.7c-2-5.1-5.1 1.2-8 1.4l-3.9 3.3c4.8 0 8.4-2.8 13.2-2.7m-150.1 1.3.7.7h1.3l-2-.7m-22.5 0c0-.7.2-1.5-.6-2v2h.6m77.4-3.3-4 2 1.4 1.3 2.6-3.3m14.6 0-.7-.6c-1.7.8.9 1.4 0 2.6.9-.4.7-1.2.7-2m-57.6-9.9c-2.6-1.7-3.4-5.6-6.6-4l-.6-.6v1.3c.6-.2.9.3 1.3.7-1.5 6.1-8.5 7-8 13.9h3.4l10.5-11.3" style="fill:#fff;fill-opacity:1;fill-rule:nonzero;stroke:none"/>
          <path d="M328 107.4c-.8-.2-2 .2-1.9 1.4.8-.2 2-.6 2-1.4" style="fill:#000;fill-opacity:1;fill-rule:nonzero;stroke:none"/>
          <path d="m124.4 105.4-4.6 2.7c1.5-.9 4.4 0 4.6-2.7m84-7.2c-5.3-3-5.9 5.5-10.6 4v5.9c3.5-3.3 8.5-6 10.6-10m-137.5 7.3-.7 2h.7v-2m76.7-11.9c.5-1.5-.9-2.1-1.4-3.3-3.3 3.5-8.2 7.5-9.2 12.6 5-.7 6.3-6.5 10.6-9.3" style="fill:#fff;fill-opacity:1;fill-rule:nonzero;stroke:none"/>
          <path d="m290.4 98.8-2.6-1.3c0-1.1.2-4-1.4-5.3-2.7-4-5-1.6-7.9.7.9-.2 2.2.5 2.6-.7 1.2 1 .8 3 0 4 1-.3 1.4.8 2 1.3.4-.3.8-.8 1.3-.6.4.3 1 .7.7 1.3-3.3 2.4-6 0-9.2 2.6 4.8-2.6 9.2-.3 14.5-2" style="fill:#000;fill-opacity:1;fill-rule:nonzero;stroke:none"/>
          <path d="M112.5 95.5c-1.6 0-2-2.7-4-2 .5 1.8 1 4 2.7 4.7l-2 1.3c3 .2 1.6-2.7 3.3-4m90 1.4A122 122 0 0 1 181.3 79c-1.8 2.4-5.5 2.4-8 1.3-8.9-1.4-14.6 5.1-23 4.6-1.1 1.2-2.7 2.2-2 4 3.9 4.1 7-1.8 10.5-2.6 13.5-2 29.6-1 37.7 12.5l6-2" style="fill:#fff;fill-opacity:1;fill-rule:nonzero;stroke:none"/>
          <path d="M187.2 97.5h1v1h-1v-1zm88.7-.6h1v1h-1v-1z" style="fill:#000;fill-opacity:1;fill-rule:nonzero;stroke:none"/>
          <path d="M67.6 93.5c-.9-3-6.8.8-2.7-3.3 1.5 2.2 3.1-1.5 4.6.7-.3.4-.8.7-.6 1.3l.6.7c.7-1.1 2.8-1.7 2-3.3-.6.2-.9-.4-1.3-.7.3-1 .5-1.9 1.3-2.6 2 1.2 2.1 3.1 2 5.3 1.9.6 1.8-1.8 2.7-2.7.4.3.7.9 1.3.7-2.1-3.5-6.1-5.6-10-7.3-2 .5-4.8-.9-7.2-1.3l3.3 3.3c-1.6 1-2 1-4 .6.2 1.9 2.2 1.8 3.3 2.7l4-.7v-1.3c-.9-.2-2.2.5-2.6-.7 1.9-.4 3.5-2 5.2 0 .1 2.2-2.3 3.8-4 4.7-.8-.2-2.1.5-2.6-.7l-2.6 2 2 2c.4-.3.7-.9 1.3-.7l.7.7c-2.2 1-.5 2 0 3.3 2.4 1 2.3-1.5 3.3-2.7m58.8-2.6c4.7-4.4 8.7-9 12-13.9l-1.4-3.3c-6.8 5.8-12.7 12.4-20.5 17.2-.7 1.1-2.7 1.7-2 3.3 4-1 7.5-3.3 12-3.3m-17.9-1.3 8.6-8c1.1 2.4 3.8 2.4 5.2.7 2.4-4.9 6.2-9.3 9.3-13.9-5.2 2.9-9.1 8.5-14.5 10.6l-.7-.7-.7.7c.6-.2 1 .3 1.4.7-1.5 1.8-4.9 1.7-7.3 2.6-3.3 0-5 3.4-8 4 .8 1.6 5.5 10.2 6.7 3.3m173.2 2.6h1v1h-1v-1z" style="fill:#fff;fill-opacity:1;fill-rule:nonzero;stroke:none"/>
          <path d="M69.5 90.2h1v1h-1v-1z" style="fill:#000;fill-opacity:1;fill-rule:nonzero;stroke:none"/>
          <path d="m221.6 86.3-5.3 4h2l3.3-4M100 79l-5.3 2.6 2.6 2c.9-1.5.8-3.5 2.7-4.6m-7.3.7h-1.3c.4.3.7.8 1.3.6v-.6M119.8 69l-14.6 4c2.4 1.2 4.4-2.5 6 .7-2 1-4.4.7-6 2.7 6.5 1.2 10.6-4.3 14.6-7.3m19.8 5.9c.2-.6-.3-.9-.6-1.3V75h.6m1.4-4h-2.7c.5 1.5 1.5 1.5 2.7 2v-2" style="fill:#fff;fill-opacity:1;fill-rule:nonzero;stroke:none"/>
          <path d="m113.8 72.4.7-.7-.7.7" style="fill:#000;fill-opacity:1;fill-rule:nonzero;stroke:none"/>
          <path d="M136.3 63.8H135c.2.6-.3 1-.7 1.3H133v2c0-2.6 3.3-1 3.3-3.3m104.5-2.7-3.3 6c1.1-2 3-3.7 3.3-6" style="fill:#fff;fill-opacity:1;fill-rule:nonzero;stroke:none"/>
        </g>
      </g>
    </g>
  </g>
</svg>
